# Blender 5.1.1
# www.blender.org
mtllib Untitled18.mtl
o Cube
v 0.086192 0.929289 -0.524184
v 0.086192 1.000000 -0.432000
v -0.086192 1.000000 -0.432000
v -0.086192 0.929289 -0.524184
v 0.086192 0.800000 -0.540000
v 0.086192 0.929289 -0.524184
v -0.086192 0.929289 -0.524184
v -0.086192 0.800000 -0.540000
v 0.086192 1.000000 0.432000
v 0.086192 0.929289 0.524184
v -0.086192 0.929289 0.524184
v -0.086192 1.000000 0.432000
v 0.086192 0.929289 0.524184
v 0.086192 0.800000 0.540000
v -0.086192 0.800000 0.540000
v -0.086192 0.929289 0.524184
v 0.086192 -0.929289 0.524184
v 0.086192 -1.000000 0.432000
v -0.086192 -1.000000 0.432000
v -0.086192 -0.929289 0.524184
v 0.086192 -0.800000 0.540000
v 0.086192 -0.929289 0.524184
v -0.086192 -0.929289 0.524184
v -0.086192 -0.800000 0.540000
v 0.086192 -1.000000 -0.432000
v 0.086192 -0.929289 -0.524184
v -0.086192 -0.929289 -0.524184
v -0.086192 -1.000000 -0.432000
v 0.086192 -0.929289 -0.524184
v 0.086192 -0.800000 -0.540000
v -0.086192 -0.800000 -0.540000
v -0.086192 -0.929289 -0.524184
vn -0.0000 0.7935 -0.6086
vn -0.0000 0.1214 -0.9926
vn -0.0000 1.0000 -0.0000
vn -0.0000 0.7935 0.6086
vn -0.0000 0.1214 0.9926
vn -0.0000 -0.7935 0.6086
vn -0.0000 -0.1214 0.9926
vn -0.0000 -0.0000 1.0000
vn -0.0000 -0.7935 -0.6086
vn -0.0000 -1.0000 -0.0000
vn -0.0000 -0.1214 -0.9926
vn -0.0000 -0.0000 -1.0000
vn 1.0000 -0.0000 -0.0000
vn -1.0000 -0.0000 -0.0000
vt 0.048454 0.129169
vt 0.048454 0.191655
vt 0.014587 0.194116
vt 0.014587 0.131629
vt 0.570854 0.915117
vt 0.512813 0.915117
vt 0.512813 0.967093
vt 0.570854 0.967093
vt 0.616161 0.248169
vt 0.616161 0.502484
vt 0.365880 0.191655
vt 0.365880 0.129169
vt 0.399747 0.131629
vt 0.399747 0.194116
vt 0.430090 0.911581
vt 0.485013 0.911581
vt 0.485013 0.963383
vt 0.430090 0.963383
vt 0.616161 0.747559
vt 0.616161 1.000000
vt 0.625863 0.185374
vt 0.625863 0.125607
vt 0.591284 0.125607
vt 0.591284 0.185374
vt 0.485013 0.270517
vt 0.430090 0.270517
vt 0.430090 0.218715
vt 0.485013 0.218715
vt 0.125000 0.746339
vt 0.380893 0.746339
vt 0.380893 0.746339
vt 0.949960 0.125607
vt 0.949960 0.185374
vt 0.984539 0.185374
vt 0.984539 0.125607
vt 0.512813 0.271902
vt 0.570854 0.271902
vt 0.570854 0.219927
vt 0.512813 0.219927
vt 0.380893 0.503661
vt 0.125000 0.503661
vt 0.380893 0.503661
vt 0.357229 0.222687
vt 0.389776 0.249256
vt 0.395360 0.297836
vt 0.395360 0.899027
vt 0.389776 0.947606
vt 0.357229 0.974175
vt 0.052183 0.974175
vt 0.019636 0.947606
vt 0.014052 0.899027
vt 0.014052 0.297836
vt 0.019636 0.249256
vt 0.052183 0.222687
vt 0.636020 0.210041
vt 0.603083 0.237157
vt 0.597431 0.286735
vt 0.597431 0.900285
vt 0.603083 0.949863
vt 0.636020 0.976978
vt 0.944725 0.976978
vt 0.977662 0.949863
vt 0.983313 0.900285
vt 0.983313 0.286735
vt 0.977662 0.237157
vt 0.944725 0.210041
s 0
usemtl Material
f 3/1/1 2/2/1 1/3/1 4/4/1
f 5/5/2 8/6/2 7/7/2 6/8/2
f 4/9/3 1/10/3 6/10/3 7/9/3
f 9/11/4 12/12/4 11/13/4 10/14/4
f 2/2/3 3/1/3 12/12/3 9/11/3
f 15/15/5 14/16/5 13/17/5 16/18/5
f 10/19/3 11/20/3 16/20/3 13/19/3
f 19/21/6 18/22/6 17/23/6 20/24/6
f 21/25/7 24/26/7 23/27/7 22/28/7
f 20/29/3 17/30/3 22/31/3 23/29/3
f 21/25/8 14/16/8 15/15/8 24/26/8
f 25/32/9 28/33/9 27/34/9 26/35/9
f 28/33/10 25/32/10 18/22/10 19/21/10
f 31/36/11 30/37/11 29/38/11 32/39/11
f 26/40/3 27/41/3 32/41/3 29/42/3
f 31/36/12 8/6/12 5/5/12 30/37/12
f 25/43/13 26/44/13 29/44/13 30/45/13 5/46/13 6/47/13 1/47/13 2/48/13 9/49/13 10/50/13 13/50/13 14/51/13 21/52/13 22/53/13 17/53/13 18/54/13
f 19/55/14 20/56/14 23/56/14 24/57/14 15/58/14 16/59/14 11/59/14 12/60/14 3/61/14 4/62/14 7/62/14 8/63/14 31/64/14 32/65/14 27/65/14 28/66/14
